<svg xmlns="http://www.w3.org/2000/svg" viewBox="0 0 512 512">
  <defs>
    <linearGradient id="bg" x1="0" y1="0" x2="1" y2="1">
      <stop offset="0%" stop-color="#0a0e1a"/>
      <stop offset="100%" stop-color="#1e293b"/>
    </linearGradient>
    <linearGradient id="accent" x1="0" y1="0" x2="1" y2="1">
      <stop offset="0%" stop-color="#22d3ee"/>
      <stop offset="100%" stop-color="#a78bfa"/>
    </linearGradient>
  </defs>
  <rect width="512" height="512" rx="96" fill="url(#bg)"/>
  <!-- Chip body -->
  <rect x="156" y="156" width="200" height="200" rx="16" fill="none" stroke="url(#accent)" stroke-width="6"/>
  <!-- Pins left -->
  <line x1="120" y1="200" x2="156" y2="200" stroke="#22d3ee" stroke-width="6" stroke-linecap="round"/>
  <line x1="120" y1="240" x2="156" y2="240" stroke="#22d3ee" stroke-width="6" stroke-linecap="round"/>
  <line x1="120" y1="280" x2="156" y2="280" stroke="#22d3ee" stroke-width="6" stroke-linecap="round"/>
  <line x1="120" y1="320" x2="156" y2="320" stroke="#22d3ee" stroke-width="6" stroke-linecap="round"/>
  <!-- Pins right -->
  <line x1="356" y1="200" x2="392" y2="200" stroke="#a78bfa" stroke-width="6" stroke-linecap="round"/>
  <line x1="356" y1="240" x2="392" y2="240" stroke="#a78bfa" stroke-width="6" stroke-linecap="round"/>
  <line x1="356" y1="280" x2="392" y2="280" stroke="#a78bfa" stroke-width="6" stroke-linecap="round"/>
  <line x1="356" y1="320" x2="392" y2="320" stroke="#a78bfa" stroke-width="6" stroke-linecap="round"/>
  <!-- Pins top -->
  <line x1="200" y1="120" x2="200" y2="156" stroke="#22d3ee" stroke-width="6" stroke-linecap="round"/>
  <line x1="240" y1="120" x2="240" y2="156" stroke="#22d3ee" stroke-width="6" stroke-linecap="round"/>
  <line x1="280" y1="120" x2="280" y2="156" stroke="#a78bfa" stroke-width="6" stroke-linecap="round"/>
  <line x1="320" y1="120" x2="320" y2="156" stroke="#a78bfa" stroke-width="6" stroke-linecap="round"/>
  <!-- Pins bottom -->
  <line x1="200" y1="356" x2="200" y2="392" stroke="#22d3ee" stroke-width="6" stroke-linecap="round"/>
  <line x1="240" y1="356" x2="240" y2="392" stroke="#22d3ee" stroke-width="6" stroke-linecap="round"/>
  <line x1="280" y1="356" x2="280" y2="392" stroke="#a78bfa" stroke-width="6" stroke-linecap="round"/>
  <line x1="320" y1="356" x2="320" y2="392" stroke="#a78bfa" stroke-width="6" stroke-linecap="round"/>
  <!-- Center lightning bolt -->
  <path d="M270 200 L240 260 L268 260 L242 312 L290 248 L262 248 Z" fill="url(#accent)" opacity="0.9"/>
</svg>
